<svg width="18" height="18" viewBox="0 0 18 18" xmlns="http://www.w3.org/2000/svg">
    <g fill="#1C3142" fill-rule="nonzero">
        <path d="M.75 1.385h1.77c.357 0 .664.23.736.553l.5 2.312.519 5.73c.172 1.789 1.79 3.163 3.736 3.174h5.4c1.721.002 3.223-1.08 3.638-2.623l.75-2.769c.28-1.034.028-2.13-.684-2.97-.71-.84-1.802-1.331-2.957-1.33H5.115l-.39-1.792C4.513.7 3.591.003 2.52 0H.75C.336 0 0 .31 0 .692c0 .383.336.693.75.693zm13.408 3.461c.693 0 1.347.295 1.774.799.426.504.577 1.162.409 1.782l-.75 2.77c-.25.924-1.15 1.572-2.183 1.572h-5.4c-1.168-.006-2.14-.83-2.244-1.904l-.449-5.019h8.843zM5.25 15.923C5.25 17.07 6.257 18 7.5 18s2.25-.93 2.25-2.077c0-1.147-1.007-2.077-2.25-2.077s-2.25.93-2.25 2.077zm3 0c0 .382-.336.692-.75.692s-.75-.31-.75-.692c0-.382.336-.692.75-.692s.75.31.75.692zM11.25 15.923C11.25 17.07 12.257 18 13.5 18s2.25-.93 2.25-2.077c0-1.147-1.007-2.077-2.25-2.077s-2.25.93-2.25 2.077zm3 0c0 .382-.336.692-.75.692s-.75-.31-.75-.692c0-.382.336-.692.75-.692s.75.31.75.692z"/>
    </g>
</svg>
