<svg xmlns="http://www.w3.org/2000/svg" width="12" height="12" viewBox="0 0 9 9">
    <g fill="none" fill-rule="evenodd">
        <g fill="#E35555" fill-rule="nonzero" stroke="#E35555" stroke-width=".3">
            <g>
                <g>
                    <g>
                        <path d="M3.5 0C1.575 0 0 1.575 0 3.5S1.575 7 3.5 7C5.119 7 6.475 5.862 7 4.375h-.875C5.6 5.381 4.638 6.125 3.5 6.125 2.056 6.125.875 4.944.875 3.5S2.056.875 3.5.875c.744 0 1.2.403 1.7.925L3.937 3.062H7V0L5.844 1.14C5.187.53 4.463 0 3.5 0z" transform="translate(-55.000000, -126.000000) translate(45.000000, 120.000000) translate(11.000000, 3.000000) translate(0.000000, 4.000000)"/>
                    </g>
                </g>
            </g>
        </g>
    </g>
</svg>
