<svg xmlns="http://www.w3.org/2000/svg" width="24" height="27" viewBox="0 0 24 27">
    <g fill="none" fill-rule="evenodd">
        <g fill="#000" fill-rule="nonzero">
            <g>
                <path d="M23.735 26.113L21.715 6.57c-.042-.41-.382-.72-.787-.72h-3.796v-.88C17.132 2.231 14.937 0 12.24 0S7.346 2.23 7.346 4.971v.88H3.55c-.405 0-.744.31-.787.72L.743 26.113c-.023.226.05.452.2.621.15.17.363.266.587.266h21.418c.224 0 .438-.097.588-.266.15-.17.222-.395.199-.621zM8.928 4.97c0-1.855 1.485-3.364 3.311-3.364 1.826 0 3.311 1.51 3.311 3.364v.88H8.928v-.88zm-6.52 20.422L4.262 7.458h3.084v1.77c0 .445.354.805.79.805.438 0 .792-.36.792-.804V7.458h6.622v1.77c0 .445.355.805.791.805.437 0 .791-.36.791-.804V7.458h3.084l1.854 17.935H2.408z" transform="translate(-305 -190) translate(305 190)"/>
            </g>
        </g>
    </g>
</svg>
