<?xml version="1.0" encoding="UTF-8"?>
<svg width="23px" height="32px" viewBox="0 0 23 32" version="1.1" xmlns="http://www.w3.org/2000/svg" xmlns:xlink="http://www.w3.org/1999/xlink">
    <!-- Generator: sketchtool 61.2 (101010) - https://sketch.com -->
    <title>9DA715B7-A8D9-4A39-B0EE-F6B590970FEF</title>
    <desc>Created with sketchtool.</desc>
    <g id="Page-1" stroke="none" stroke-width="1" fill="none" fill-rule="evenodd">
        <g id="Order-Review-Success" transform="translate(-24.000000, -36.000000)" fill="#231F20" fill-rule="nonzero">
            <g id="angel-icon" transform="translate(24.000000, 36.000000)">
                <path d="M19.036,13.656 C20.3573333,13.906 21.2873333,14.4623333 21.826,15.325 C22.3646667,16.1916667 22.6355,17.554 22.6385,19.412 C22.6385,23.1043333 21.5285,26.1256667 19.3085,28.476 C17.0885,30.826 14.2498333,32.0005 10.7925,31.9995024 C9.4371615,32.0003862 8.09330615,31.7510407 6.8285,31.264 C5.60139154,30.8062215 4.4782066,30.1076946 3.525,29.2095 C2.5486677,28.34536 1.74336773,27.3054918 1.151,26.144 C0.636256913,25.1185336 0.365704485,23.9878948 0.3605,22.8405 C0.3605,21.5805 0.631333333,20.6063333 1.173,19.918 C1.71433333,19.2293333 2.57,18.7566667 3.74,18.5 C3.55316706,18.0775575 3.39138673,17.6444737 3.2555,17.203 C3.16872394,16.9401008 3.11694551,16.6669191 3.1015,16.3905 C3.1015,15.7311667 3.4495,15.0573333 4.1455,14.369 C4.8415,13.6803333 5.497,13.336 6.112,13.336 C6.39595288,13.3395184 6.67757613,13.3877774 6.9465,13.479 C7.29871912,13.602057 7.63747137,13.760711 7.9575,13.9525 C6.8285,10.7591667 6.00783333,8.2925 5.4955,6.5525 C4.98316667,4.81916667 4.72766667,3.6225 4.729,2.9625 C4.729,2.05383333 4.96316667,1.33216667 5.4315,0.7975 C5.91787214,0.259600582 6.61964137,-0.0321152522 7.344,0.0025 C8.72066667,0.0025 10.4626667,3.07916667 12.57,9.2325 C12.9356667,10.2865 13.214,11.0998333 13.405,11.6725 C13.5663333,11.2191667 13.793,10.5746667 14.085,9.739 C16.1993333,3.64633333 18.0176667,0.6 19.54,0.6 C20.2201664,0.571569166 20.8772537,0.849560617 21.3305,1.3575 C21.7705,1.8625 21.9905,2.54 21.9905,3.39 C21.9905,4.03466667 21.7455,5.2135 21.2555,6.9265 C20.7655,8.63983333 20.0255,10.8845 19.0355,13.6605 L19.036,13.656 Z M3.301,22.621 C3.50666667,22.871 3.79216667,23.238 4.1575,23.722 C5.12483333,25.0553333 6.01816667,25.722 6.8375,25.722 C7.10958596,25.7237129 7.37368928,25.6301358 7.584,25.4575 C7.77315039,25.3357012 7.89520186,25.1331437 7.9145,24.909 C7.9145,24.689 7.76783333,24.322 7.4745,23.808 C7.11524648,23.200222 6.7111236,22.6201101 6.2655,22.0725 C5.82493836,21.4871072 5.33587818,20.9398415 4.8035,20.4365 C4.41583333,20.0931667 4.10466667,19.9215 3.87,19.9215 C3.35766667,19.9215 2.885,20.196 2.452,20.745 C2.01848531,21.2991563 1.78974785,21.9860751 1.8045,22.6895 C1.82123957,23.3816907 1.97078216,24.0642227 2.245,24.7 C2.57935188,25.4987721 3.01926928,26.2491205 3.553,26.931 C4.39380237,28.0686276 5.49873891,28.9846319 6.7725,29.6 C8.10178173,30.2307293 9.55833874,30.5472233 11.0295,30.525 C13.776407,30.5737162 16.4037111,29.4027907 18.204,27.3275 C20.13,25.1958333 21.093,22.5258333 21.093,19.3175 C21.112582,18.5312096 21.0387317,17.7453752 20.873,16.9765 C20.7791305,16.4861933 20.5241304,16.041307 20.1485,15.7125 C19.5485,15.2148333 18.3798333,14.7678333 16.6425,14.3715 C14.8572675,13.9707732 13.0326416,13.772025 11.203,13.779 C10.6763333,13.779 10.3026667,13.8673333 10.082,14.044 C9.862,14.2206667 9.752,14.5206667 9.752,14.944 C9.752,15.944 10.3083333,16.6656667 11.421,17.109 C12.5336667,17.5556667 14.3358333,17.7756667 16.8275,17.769 L17.7275,17.769 C17.9181046,17.7601644 18.1017233,17.8416903 18.223,17.989 C18.3669302,18.1931493 18.4543799,18.4316958 18.4765,18.6805 C18.2265,18.9155 17.7126667,19.1826667 16.935,19.482 C16.3086334,19.7032038 15.7111696,19.9989979 15.1555,20.363 C14.3048639,20.9879556 13.5882283,21.7771898 13.048,22.684 C12.5555526,23.4338542 12.2783197,24.304466 12.2465,25.201 C12.2677787,25.7975032 12.3830287,26.386915 12.588,26.9475 C12.7467058,27.3554092 12.8611941,27.7791671 12.9295,28.2115 L12.9295,28.3655 L12.8855,28.5635 C12.2411667,28.5195 11.7325,28.1421667 11.3595,27.4315 C10.9861667,26.7208333 10.7995,25.7708333 10.7995,24.5815 L10.7995,24.3835 C10.6987846,24.4754331 10.5833461,24.5498005 10.458,24.6035 C10.3421873,24.6486083 10.2187781,24.6710155 10.0945,24.6695 C9.9689132,24.6701426 9.84353916,24.659095 9.72,24.6365 C9.58616997,24.6105604 9.45381597,24.5775136 9.3235,24.5375 C9.36628867,24.6931273 9.39935255,24.8512661 9.4225,25.011 C9.44162789,25.1312909 9.45265272,25.252731 9.4555,25.3745 C9.45866975,25.9107333 9.22590681,26.4212393 8.819,26.7705 C8.40738444,27.1532581 7.86349424,27.3616747 7.3015,27.352 C6.37816667,27.352 5.44083333,26.9013333 4.4895,26 C3.53816667,25.0986667 3.06183333,24.2178333 3.0605,23.3575 C3.05826333,23.2124434 3.07678417,23.0678124 3.1155,22.928 C3.1489993,22.8075032 3.21267192,22.6975388 3.3005,22.6085 L3.301,22.621 Z M9.8945,23.1475 C10.1605125,23.139264 10.4094149,23.0143556 10.575,22.806 C10.7679964,22.6092328 10.8783781,22.3460698 10.8835,22.0705 C10.8835,21.7931667 10.6823333,21.1431667 10.28,20.1205 C9.86500762,19.0792121 9.36097293,18.0756595 8.7735,17.121 C8.42697609,16.5062732 7.98972594,15.9473212 7.4765,15.463 C7.05083333,15.0896667 6.64783333,14.903 6.2675,14.903 C5.95916667,14.903 5.6185,15.0968333 5.2455,15.4845 C4.87216667,15.8721667 4.6855,16.2348333 4.6855,16.5725 C4.6855,16.9235 4.86833333,17.4505 5.234,18.1535 C5.65696328,18.9434945 6.15011623,19.6938501 6.7075,20.3955 C7.23824267,21.1350681 7.84986099,21.8130974 8.531,22.417 C9.102,22.8956667 9.55633333,23.135 9.894,23.135 L9.8945,23.1475 Z M12.048,12.5325 L9.675,5.671 C9.05933333,3.92833333 8.58433333,2.789 8.25,2.253 C7.909,1.71766667 7.54033333,1.4505 7.144,1.4515 C6.85558938,1.44592578 6.58140218,1.57653522 6.404,1.804 C6.20125772,2.07577904 6.09991111,2.40988679 6.1175,2.7485 C6.1175,3.4225 6.37366667,4.597 6.886,6.272 C7.39533333,7.94733333 8.16666667,10.1378333 9.2,12.8435 C9.28029097,12.6887847 9.41305516,12.5677193 9.5745,12.502 C9.78648292,12.4277615 10.0105669,12.3941743 10.235,12.403 C10.323,12.403 10.4985,12.4103333 10.7615,12.425 C11.0241667,12.4396667 11.455,12.4741667 12.054,12.5285 L12.048,12.5325 Z M14.53,19.185 C13.9294289,19.1588744 13.3312684,19.0927277 12.7395,18.987 C12.189585,18.8879508 11.6494883,18.7405452 11.1255,18.5465 C11.3588333,19.0131667 11.5671667,19.4821667 11.7505,19.9535 C11.9245791,20.4060543 12.0716706,20.8685326 12.191,21.3385 C12.5277173,20.9123596 12.8957373,20.5119164 13.292,20.1405 C13.6768942,19.7877644 14.0908624,19.4681308 14.5295,19.185 L14.53,19.185 Z M17.4525,13.275 C18.4331667,10.609 19.1988333,8.40683333 19.7495,6.6685 C20.3001667,4.93016667 20.5746667,3.86433333 20.573,3.471 C20.5944002,3.1197952 20.4973944,2.77156004 20.2975,2.482 C20.1171038,2.24861199 19.834723,2.11720709 19.54,2.1295 C19.13,2.1295 18.7123333,2.47016667 18.287,3.1515 C17.8613333,3.83283333 17.3923333,4.92783333 16.88,6.4365 L14.678,12.7875 L17.4525,13.275 Z" id="Shape"></path>
            </g>
        </g>
    </g>
</svg>